<?xml version="1.0" encoding="utf-8"?>
<svg viewBox="1681.998 -811.219 620.177 1027.219" xmlns="http://www.w3.org/2000/svg">
  <path d="M 1685.4 -269 C 1685.4 -279.667 1690.067 -294 1699.4 -312 C 1708.733 -330 1721.4 -348.667 1737.4 -368 C 1753.4 -387.333 1775.733 -405 1804.4 -421 C 1833.067 -437 1863.4 -447 1895.4 -451 L 1921.4 -451 C 1943.4 -451 1964.067 -447 1983.4 -439 C 2002.733 -431 2019.4 -420 2033.4 -406 C 2047.4 -392 2059.4 -377 2069.4 -361 C 2079.4 -345 2088.4 -328.333 2096.4 -311 C 2104.4 -293.667 2109.733 -278.667 2112.4 -266 C 2115.067 -253.333 2118.4 -242 2122.4 -232 L 2124.4 -220 L 2126.4 -216 L 2130.4 -226 C 2145.733 -260.667 2166.733 -304.333 2193.4 -357 C 2220.067 -409.667 2236.067 -437.667 2241.4 -441 C 2244.733 -443 2252.4 -444 2264.4 -444 L 2274.4 -444 C 2289.733 -444 2297.4 -439.333 2297.4 -430 C 2297.4 -427.333 2290.4 -413.667 2276.4 -389 C 2262.4 -364.333 2242.4 -325.667 2216.4 -273 C 2190.4 -220.333 2165.733 -166 2142.4 -110 L 2132.4 -84 L 2131.4 -70 C 2128.733 -31.333 2120.733 17.333 2107.4 76 C 2094.067 134.667 2081.067 173.333 2068.4 192 C 2059.733 204.667 2048.733 211 2035.4 211 C 2024.733 211 2017.067 206.667 2012.4 198 C 2007.733 189.333 2005.4 180.333 2005.4 171 C 2005.4 133 2025.733 54.667 2066.4 -64 L 2073.4 -84 L 2073.4 -98 C 2073.4 -153.333 2066.067 -201 2051.4 -241 C 2044.067 -267 2026.733 -287.667 1999.4 -303 C 1972.067 -318.333 1935.733 -326.333 1890.4 -327 C 1855.733 -327 1827.733 -323.667 1806.4 -317 C 1785.067 -310.333 1771.067 -303.333 1764.4 -296 C 1757.733 -288.667 1752.4 -280.667 1748.4 -272 C 1744.4 -263.333 1741.4 -258.667 1739.4 -258 C 1736.733 -256.667 1729.067 -256 1716.4 -256 C 1707.733 -256 1701.733 -256 1698.4 -256 C 1695.067 -256 1692.067 -257.333 1689.4 -260 C 1686.733 -262.667 1685.4 -265.667 1685.4 -269 Z" stroke="currentColor" fill="currentColor" stroke-width="0"/>
  <g data-mml-node="mspace" transform="matrix(1, 0, 0, -1, 2270.399902, 0)" stroke="currentColor" fill="currentColor" stroke-width="0"/>
</svg>