<?xml version="1.0" encoding="utf-8"?>
<svg viewBox="939.591 -811.219 476.588 1027.219" xmlns="http://www.w3.org/2000/svg">
  <path d="M 1164.2 8 C 1121.533 8 1085.2 2.333 1055.2 -9 C 1025.2 -20.333 1002.533 -35.333 987.2 -54 C 971.867 -72.667 961.533 -91.667 956.2 -111 C 950.867 -130.333 947.533 -149.667 946.2 -169 C 946.2 -181.667 946.867 -195.333 948.2 -210 C 952.2 -230 956.867 -248.667 962.2 -266 C 1008.2 -378 1100.533 -439.667 1239.2 -451 L 1242.2 -452 C 1244.867 -452 1247.2 -452 1249.2 -452 C 1250.533 -452 1253.2 -452 1257.2 -452 C 1261.2 -452 1264.533 -451.667 1267.2 -451 C 1309.2 -451 1342.867 -442 1368.2 -424 C 1393.533 -406 1406.2 -382 1406.2 -352 C 1406.2 -310 1386.2 -276 1346.2 -250 C 1305.533 -224 1232.2 -211 1126.2 -211 L 1088.2 -211 C 1088.2 -210.333 1087.2 -205.333 1085.2 -196 C 1083.2 -186.667 1081.2 -175.333 1079.2 -162 C 1077.2 -148.667 1075.867 -136.667 1075.2 -126 C 1075.2 -70.667 1106.2 -43 1168.2 -43 C 1252.867 -43 1317.2 -63.667 1361.2 -105 C 1371.2 -115 1378.867 -119 1384.2 -117 C 1388.2 -115 1393.867 -110 1401.2 -102 C 1408.533 -94 1412.533 -87.667 1413.2 -83 C 1413.2 -80.333 1410.867 -76 1406.2 -70 C 1401.533 -64 1393.2 -56.333 1381.2 -47 C 1369.2 -37.667 1354.2 -29 1336.2 -21 C 1318.2 -13 1294.2 -6.333 1264.2 -1 C 1234.2 4.333 1200.867 7.333 1164.2 8 Z M 1141.2 -262 C 1267.867 -264.667 1331.2 -293.667 1331.2 -349 C 1331.2 -361.667 1325.2 -373.333 1313.2 -384 C 1301.2 -394.667 1282.867 -400.333 1258.2 -401 C 1232.867 -401 1210.533 -396.667 1191.2 -388 C 1171.867 -379.333 1156.867 -368 1146.2 -354 C 1135.533 -340 1126.867 -326.667 1120.2 -314 C 1113.533 -301.333 1108.867 -289.333 1106.2 -278 L 1101.2 -263 C 1101.2 -262.333 1114.533 -262 1141.2 -262 Z" stroke="currentColor" fill="currentColor" stroke-width="0"/>
</svg>