<?xml version="1.0" encoding="utf-8"?>
<svg viewBox="2541.841 -811.219 657.522 1027.219" xmlns="http://www.w3.org/2000/svg">
  <path d="M 2730.7 -4 C 2725.367 -4.667 2718.7 -6 2710.7 -8 C 2702.7 -10 2688.033 -16 2666.7 -26 C 2645.367 -36 2626.7 -46.667 2610.7 -58 C 2594.7 -69.333 2579.7 -87.333 2565.7 -112 C 2551.7 -136.667 2545.033 -162.667 2545.7 -190 C 2545.7 -209.333 2548.033 -228 2552.7 -246 C 2564.033 -290.667 2578.367 -329.333 2595.7 -362 C 2613.033 -394.667 2626.367 -416 2635.7 -426 C 2645.033 -436 2651.7 -441.667 2655.7 -443 C 2657.033 -443.667 2664.7 -444 2678.7 -444 C 2699.367 -444 2709.7 -440 2709.7 -432 C 2709.7 -427.333 2700.033 -414 2680.7 -392 C 2660.033 -364.667 2643.033 -331 2629.7 -291 C 2616.367 -251 2609.367 -222.667 2608.7 -206 C 2608.7 -153.333 2657.7 -121 2755.7 -109 L 2768.7 -107 L 2780.7 -139 C 2820.033 -249 2862.033 -328.667 2906.7 -378 C 2951.367 -427.333 3002.033 -452 3058.7 -452 C 3095.367 -450 3127.367 -436.667 3154.7 -412 C 3182.033 -387.333 3195.7 -345.333 3195.7 -286 C 3192.367 -206.667 3157.367 -138.667 3090.7 -82 C 3024.033 -25.333 2943.7 4.667 2849.7 8 L 2824.7 8 L 2824.7 11 C 2824.7 11.667 2823.033 23.333 2819.7 46 C 2816.367 68.667 2813.033 92 2809.7 116 C 2806.367 140 2804.033 153.667 2802.7 157 C 2800.033 172.333 2792.033 186 2778.7 198 C 2765.367 210 2748.033 216 2726.7 216 C 2711.367 216 2699.033 211.667 2689.7 203 C 2680.367 194.333 2675.7 182.667 2675.7 168 C 2675.7 162.667 2676.033 158.333 2676.7 155 C 2676.7 153 2681.367 138.667 2690.7 112 C 2700.033 85.333 2709.033 59.333 2717.7 34 C 2726.367 8.667 2730.7 -4 2730.7 -4 Z M 3129.7 -260 C 3129.7 -288.667 3119.7 -309.333 3099.7 -322 C 3079.7 -334.667 3057.7 -341 3033.7 -341 C 3007.7 -341 2982.7 -333.667 2958.7 -319 C 2934.7 -304.333 2914.367 -286 2897.7 -264 C 2873.033 -233.333 2856.7 -198.333 2848.7 -159 C 2843.367 -127 2840.7 -108.667 2840.7 -104 C 2840.7 -103.333 2845.033 -103 2853.7 -103 C 2947.7 -103 3017.033 -119.333 3061.7 -152 C 3106.367 -184.667 3129.033 -220.667 3129.7 -260 Z" stroke="currentColor" fill="currentColor" stroke-width="0"/>
</svg>