<?xml version="1.0" encoding="utf-8"?>
<svg viewBox="6590.636 -811.219 595.116 1027.219" xmlns="http://www.w3.org/2000/svg">
  <path d="M 6627.5 -289 L 6615.5 -289 C 6602.167 -289 6595.5 -293.667 6595.5 -303 C 6595.5 -306.333 6598.833 -312.667 6605.5 -322 C 6660.833 -396.667 6716.167 -437 6771.5 -443 C 6772.167 -443.667 6834.5 -444 6958.5 -444 C 7081.833 -444 7145.5 -443.333 7149.5 -442 C 7156.833 -441.333 7164.167 -438 7171.5 -432 C 7178.833 -426 7182.5 -416 7182.5 -402 C 7182.5 -373.333 7169.833 -352.667 7144.5 -340 C 7137.167 -336.667 7128.833 -334.667 7119.5 -334 C 7110.167 -333.333 7078.5 -333 7024.5 -333 L 6925.5 -333 L 6925.5 -331 C 6924.833 -330.333 6921.167 -307 6914.5 -261 C 6907.833 -215 6900.5 -167.667 6892.5 -119 C 6884.5 -70.333 6879.833 -44 6878.5 -40 C 6874.5 -25.333 6866.167 -13 6853.5 -3 C 6837.5 7.667 6821.5 13 6805.5 13 C 6790.167 13 6777.833 8.667 6768.5 0 C 6759.167 -8.667 6754.167 -20.333 6753.5 -35 C 6753.5 -41 6753.833 -45.333 6754.5 -48 C 6755.167 -51.333 6770.833 -97.667 6801.5 -187 C 6832.167 -276.333 6848.833 -324.333 6851.5 -331 C 6851.5 -332.333 6834.5 -333 6800.5 -333 L 6781.5 -333 C 6750.833 -333 6726.5 -331.333 6708.5 -328 C 6690.5 -324.667 6674.5 -315.667 6660.5 -301 L 6649.5 -290 L 6627.5 -289 Z" stroke="currentColor" fill="currentColor" stroke-width="0"/>
</svg>